<?xml version="1.0" encoding="UTF-8"?>
<svg width="91px" height="63px" viewBox="0 0 91 63" version="1.1" xmlns="http://www.w3.org/2000/svg" xmlns:xlink="http://www.w3.org/1999/xlink">
    <title>logo</title>
    <g id="REX-desktop" stroke="none" stroke-width="1" fill="none" fill-rule="evenodd">
        <g id="10.1-View-POD" transform="translate(-68.000000, -24.000000)">
            <g id="logo" transform="translate(68.000000, 27.000000)">
                <g id="POD" transform="translate(0.000000, 31.093170)" fill="#FFFFFF" fill-rule="nonzero">
                    <path d="M0,0.549858172 C0.759327951,0.576041894 1.76085533,0.602225616 3.00458215,0.628409339 C4.24830897,0.654593061 5.49858172,0.667684923 6.75540039,0.667684923 C8.06458652,0.667684923 9.32140519,0.654593061 10.5258564,0.628409339 C11.7303077,0.602225616 12.5812786,0.589133755 13.0787694,0.589133755 C17.0586952,0.589133755 20.0240017,1.30918612 21.9746891,2.74929086 C23.9253764,4.18939559 24.9007201,6.04843989 24.9007201,8.32642374 C24.9007201,9.26903775 24.7043421,10.2574733 24.3115863,11.2917303 C23.9188305,12.3259873 23.2511455,13.2816932 22.3085315,14.1588479 C21.3659175,15.0360026 20.0763692,15.7495091 18.4398865,16.2993672 C16.8034039,16.8492254 14.7283439,17.1241545 12.2147065,17.1241545 L8.05149465,17.1241545 L8.05149465,16.3386428 L11.8219507,16.3386428 C13.1573205,16.3386428 14.1719398,15.9851626 14.8658084,15.2782021 C15.5596771,14.5712415 16.0309841,13.6417194 16.2797294,12.4896356 C16.5284748,11.3375518 16.6528475,10.093825 16.6528475,8.75845516 C16.6528475,6.27100153 16.3713725,4.41195723 15.8084224,3.18132228 C15.2454724,1.95068732 14.2701287,1.33536985 12.8823914,1.33536985 C11.9921449,1.33536985 11.416103,1.55793149 11.1542658,2.00305477 C10.8924285,2.44817805 10.7615099,3.35151647 10.7615099,4.71307004 L10.7615099,23.8010037 C10.7615099,24.8745363 10.8727907,25.6731399 11.0953524,26.1968143 C11.317914,26.7204888 11.7433995,27.0608772 12.3718089,27.2179795 C13.0002182,27.3750818 13.9166485,27.453633 15.1210997,27.453633 L15.1210997,28.3569714 C14.2308532,28.3307877 13.0656775,28.304604 11.6255728,28.2784202 C10.185468,28.2522365 8.65372027,28.2391447 7.03032948,28.2391447 C5.82587825,28.2391447 4.62142701,28.2522365 3.41697578,28.2784202 C2.21252455,28.304604 1.07353262,28.3307877 0,28.3569714 L0,27.5714597 C0.811695396,27.5190923 1.41392101,27.4143574 1.80667685,27.2572551 C2.19943269,27.1001527 2.46126991,26.7859481 2.59218852,26.3146411 C2.72310714,25.8433341 2.78856644,25.1363736 2.78856644,24.1937595 L2.78856644,4.71307004 C2.78856644,3.74427231 2.72310714,3.03076587 2.59218852,2.57255073 C2.46126991,2.11433559 2.19288676,1.80013092 1.78703906,1.62993672 C1.38119136,1.45974253 0.785511674,1.36155357 0,1.33536985 L0,0.549858172 Z" id="Path"></path>
                    <path d="M42.9113806,0 C45.8701412,0 48.4623297,0.562950033 50.6879461,1.6888501 C52.9135625,2.81475016 54.6416882,4.43159503 55.8723232,6.53938468 C57.1029581,8.64717434 57.7182756,11.2066332 57.7182756,14.2177613 C57.7182756,17.1503382 57.0898663,19.716343 55.8330476,21.9157757 C54.5762289,24.1152084 52.8284654,25.8302422 50.5897572,27.0608772 C48.3510489,28.2915121 45.7784982,28.9068296 42.872105,28.9068296 C39.9133443,28.9068296 37.3211558,28.3438796 35.0955394,27.2179795 C32.869923,26.0920794 31.1417973,24.4686886 29.9111624,22.3478071 C28.6805274,20.2269256 28.0652099,17.6740127 28.0652099,14.6890683 C28.0652099,11.7564914 28.7001652,9.19048658 29.9700757,6.99105389 C31.2399863,4.79162121 32.9877498,3.07658739 35.2133662,1.84595243 C37.4389826,0.615317478 40.0049874,0 42.9113806,0 Z M42.7542782,0.706960506 C41.4450921,0.706960506 40.3061002,1.29609426 39.3373025,2.47436177 C38.3685047,3.65262928 37.6222686,5.27602007 37.0985942,7.34453415 C36.5749197,9.41304822 36.3130825,11.8088588 36.3130825,14.531966 C36.3130825,17.3074405 36.6141953,19.7228889 37.2164209,21.7783111 C37.8186466,23.8337334 38.6303419,25.4178486 39.6515071,26.5306568 C40.6726723,27.643465 41.7985724,28.1998691 43.0292073,28.1998691 C44.3383934,28.1998691 45.4773854,27.6107353 46.4461831,26.4324678 C47.4149808,25.2542003 48.1612169,23.6242636 48.6848914,21.5426576 C49.2085658,19.4610517 49.470403,17.071787 49.470403,14.3748636 C49.470403,11.5732053 49.1692902,9.151211 48.5670646,7.10888065 C47.964839,5.06655029 47.1531436,3.48898102 46.1319784,2.37617281 C45.1108133,1.26336461 43.9849132,0.706960506 42.7542782,0.706960506 Z" id="Shape"></path>
                    <path d="M74.1186372,0.549858172 C79.6172189,0.549858172 83.6953337,1.72157975 86.3529815,4.06502291 C89.0106293,6.40846607 90.3394533,9.76652847 90.3394533,14.1392101 C90.3394533,16.9932359 89.6848602,19.4872354 88.3756741,21.6212088 C87.066488,23.7551822 85.174714,25.4113026 82.7003522,26.5895702 C80.2259905,27.7678377 77.247592,28.3569714 73.7651569,28.3569714 C73.3462174,28.3569714 72.7898133,28.3438796 72.0959446,28.3176958 C71.402076,28.2915121 70.6754777,28.2718743 69.9161497,28.2587825 C69.1568218,28.2456906 68.476045,28.2391447 67.8738194,28.2391447 C66.5646333,28.2391447 65.2881768,28.2456906 64.04445,28.2587825 C62.8007232,28.2718743 61.7991958,28.304604 61.0398678,28.3569714 L61.0398678,27.5714597 C61.8515632,27.5190923 62.4537888,27.4143574 62.8465447,27.2572551 C63.2393005,27.1001527 63.5011377,26.7859481 63.6320564,26.3146411 C63.762975,25.8433341 63.8284343,25.1363736 63.8284343,24.1937595 L63.8284343,4.71307004 C63.8284343,3.74427231 63.762975,3.03076587 63.6320564,2.57255073 C63.5011377,2.11433559 63.2327546,1.80013092 62.8269069,1.62993672 C62.4210592,1.45974253 61.8253795,1.36155357 61.0398678,1.33536985 L61.0398678,0.549858172 C61.7991958,0.576041894 62.8007232,0.608771547 64.04445,0.648047131 C65.2881768,0.687322714 66.5384495,0.693868645 67.7952682,0.667684923 C68.764066,0.6415012 69.8572364,0.615317478 71.0747795,0.589133755 C72.2923226,0.562950033 73.3069418,0.549858172 74.1186372,0.549858172 Z M74.707771,1.25681868 C73.5033197,1.25681868 72.717808,1.47938032 72.3512359,1.9245036 C71.9846638,2.36962688 71.8013778,3.27296531 71.8013778,4.63451887 L71.8013778,24.2723107 C71.8013778,25.6338643 71.9912098,26.5372027 72.3708737,26.982326 C72.7505377,27.4274493 73.5425953,27.6500109 74.7470465,27.6500109 C76.5275397,27.6500109 77.9545525,27.1328824 79.0280852,26.0986254 C80.1016178,25.0643683 80.8805835,23.5522583 81.3649824,21.5622954 C81.8493813,19.5723325 82.0915807,17.1503382 82.0915807,14.2963125 C82.0915807,11.3637355 81.8362894,8.93519529 81.3257068,7.01069169 C80.8151242,5.08618809 80.0165207,3.64608335 78.9298962,2.69037748 C77.8432717,1.73467161 76.4358966,1.25681868 74.707771,1.25681868 Z" id="Shape"></path>
                </g>
                <path d="M38.9068971,21.1740817 L41.4194302,21.1740817 C42.5239997,21.1740817 43.4194302,22.0695122 43.4194302,23.1740817 L43.4194302,25.6866147 C43.4194302,26.7911842 42.5239997,27.6866147 41.4194302,27.6866147 L38.9068971,27.6866147 C37.8023276,27.6866147 36.9068971,26.7911842 36.9068971,25.6866147 L36.9068971,23.1740817 C36.9068971,22.0695122 37.8023276,21.1740817 38.9068971,21.1740817 Z M46.7219368,21.1740817 L49.2344698,21.1740817 C50.3390393,21.1740817 51.2344698,22.0695122 51.2344698,23.1740817 L51.2344698,25.6866147 C51.2344698,26.7911842 50.3390393,27.6866147 49.2344698,27.6866147 L46.7219368,27.6866147 C45.6173673,27.6866147 44.7219368,26.7911842 44.7219368,25.6866147 L44.7219368,23.1740817 C44.7219368,22.0695122 45.6173673,21.1740817 46.7219368,21.1740817 Z M46.7219368,13.3590421 L49.2344698,13.3590421 C50.3390393,13.3590421 51.2344698,14.2544726 51.2344698,15.3590421 L51.2344698,17.8715751 C51.2344698,18.9761446 50.3390393,19.8715751 49.2344698,19.8715751 L46.7219368,19.8715751 C45.6173673,19.8715751 44.7219368,18.9761446 44.7219368,17.8715751 L44.7219368,15.3590421 C44.7219368,14.2544726 45.6173673,13.3590421 46.7219368,13.3590421 Z M38.9068971,13.3590421 L41.4194302,13.3590421 C42.5239997,13.3590421 43.4194302,14.2544726 43.4194302,15.3590421 L43.4194302,17.8715751 C43.4194302,18.9761446 42.5239997,19.8715751 41.4194302,19.8715751 L38.9068971,19.8715751 C37.8023276,19.8715751 36.9068971,18.9761446 36.9068971,17.8715751 L36.9068971,15.3590421 C36.9068971,14.2544726 37.8023276,13.3590421 38.9068971,13.3590421 Z" id="Combined-Shape" fill="#FFFFFF"></path>
                <polyline id="Path-2" stroke="#FFFFFF" stroke-width="4" points="3.27296531 27.8515179 3.27296531 15.5362443 44.2208767 4.77092181e-16 86.6333878 15.5362443 86.6333878 27.8515179"></polyline>
            </g>
        </g>
    </g>
</svg>