<?xml version="1.0" encoding="UTF-8"?>
<svg width="32px" height="31px" viewBox="0 0 32 31" version="1.1" xmlns="http://www.w3.org/2000/svg" xmlns:xlink="http://www.w3.org/1999/xlink">
    <title>Progress/Step Completed</title>
    <defs>
        <path d="M11.8,1.13333333 L4.46666667,8.46666667 C4.33333333,8.6 4.2,8.66666667 4,8.66666667 C3.8,8.66666667 3.66666667,8.6 3.53333333,8.46666667 L0.2,5.13333333 C-0.0666666667,4.86666667 -0.0666666667,4.46666667 0.2,4.2 C0.466666667,3.93333333 0.866666667,3.93333333 1.13333333,4.2 L4,7.06666667 L10.8666667,0.2 C11.1333333,-0.0666666667 11.5333333,-0.0666666667 11.8,0.2 C12.0666667,0.466666667 12.0666667,0.866666667 11.8,1.13333333 Z" id="path-1"></path>
    </defs>
    <g id="REX-desktop" stroke="none" stroke-width="1" fill="none" fill-rule="evenodd">
        <g id="07.-View-Property" transform="translate(-375.000000, -4641.000000)">
            <g id="Group-13" transform="translate(120.000000, 4581.500000)">
                <g id="Group-3" transform="translate(256.000000, 60.000000)">
                    <circle id="Oval" stroke="#03A9F4" fill="#03A9F4" cx="15" cy="15" r="15"></circle>
                    <g id="icon-/-check" transform="translate(9.000000, 11.000000)">
                        <mask id="mask-2" fill="white">
                            <use xlink:href="#path-1"></use>
                        </mask>
                        <use id="Mask" fill="#FFFFFF" fill-rule="nonzero" xlink:href="#path-1"></use>
                        <g id="Icon-Color" mask="url(#mask-2)" fill="#FFFFFF">
                            <g transform="translate(-2.000000, -4.000000)" id="Shape">
                                <rect x="0" y="0" width="16" height="16"></rect>
                            </g>
                        </g>
                    </g>
                </g>
            </g>
        </g>
    </g>
</svg>
