<?xml version="1.0" encoding="UTF-8"?>
<svg width="10px" height="6px" viewBox="0 0 10 6" version="1.1" xmlns="http://www.w3.org/2000/svg" xmlns:xlink="http://www.w3.org/1999/xlink">
    <title>icon / chevron-down</title>
    <defs>
        <path d="M9.13333333,1.13333333 L5.13333333,5.13333333 C5,5.26666667 4.86666667,5.33333333 4.66666667,5.33333333 C4.46666667,5.33333333 4.33333333,5.26666667 4.2,5.13333333 L0.2,1.13333333 C-0.0666666667,0.866666667 -0.0666666667,0.466666667 0.2,0.2 C0.466666667,-0.0666666667 0.866666667,-0.0666666667 1.13333333,0.2 L4.66666667,3.73333333 L8.2,0.2 C8.46666667,-0.0666666667 8.86666667,-0.0666666667 9.13333333,0.2 C9.4,0.466666667 9.4,0.866666667 9.13333333,1.13333333 Z" id="path-1"></path>
    </defs>
    <g id="REX-desktop" stroke="none" stroke-width="1" fill="none" fill-rule="evenodd">
        <g id="06.1a.New" transform="translate(-271.000000, -3696.000000)">
            <g id="Group-11" transform="translate(120.000000, 3579.000000)">
                <g id="form-/-text-field-copy-2" transform="translate(0.000000, 78.000000)">
                    <g id="icon-/-chevron-down" transform="translate(151.333333, 39.333333)">
                        <mask id="mask-2" fill="white">
                            <use xlink:href="#path-1"></use>
                        </mask>
                        <use id="Mask" fill="#000000" fill-rule="nonzero" xlink:href="#path-1"></use>
                        <g id="Icon-Color" mask="url(#mask-2)" fill="#000000">
                            <g transform="translate(-3.333333, -5.333333)" id="Shape">
                                <rect x="0" y="0" width="16" height="16"></rect>
                            </g>
                        </g>
                    </g>
                </g>
            </g>
        </g>
    </g>
</svg>