<?xml version="1.0" encoding="UTF-8"?>
<svg width="20px" height="20px" viewBox="0 0 20 20" version="1.1" xmlns="http://www.w3.org/2000/svg" xmlns:xlink="http://www.w3.org/1999/xlink">
    <title>icon / phone</title>
    <defs>
        <path d="M16.1567732,10.7990868 C15.4033486,10.7153729 14.6499239,10.5479452 13.9802131,10.2968037 C13.0593607,9.96194825 12.0547945,10.2130898 11.3013699,10.8828006 L10.7153729,11.4687976 C9.20852359,10.4642314 7.86910198,9.20852359 6.86453577,7.61796043 L7.45053272,7.03196347 C8.12024353,6.36225266 8.37138508,5.2739726 8.03652968,4.35312024 C7.78538813,3.68340944 7.61796043,2.92998478 7.53424658,2.17656012 C7.36681887,0.920852359 6.27853881,-1.77635684e-15 5.02283105,-1.77635684e-15 C5.02283105,-1.77635684e-15 5.02283105,-1.77635684e-15 5.02283105,-1.77635684e-15 L2.51141553,-1.77635684e-15 C2.42770167,-1.77635684e-15 2.34398782,-1.77635684e-15 2.26027397,-1.77635684e-15 C1.59056317,0.0837138508 1.00456621,0.418569254 0.585996956,0.920852359 C0.167427702,1.42313546 -3.55271368e-15,2.09284627 -3.55271368e-15,2.76255708 C0.251141553,5.4414003 1.25570776,8.12024353 2.67884323,10.3805175 C4.01826484,12.4733638 5.85996956,14.3150685 7.95281583,15.6544901 C10.2130898,17.1613394 12.891933,18.0821918 15.5707763,18.3333333 C15.6544901,18.3333333 15.738204,18.3333333 15.8219178,18.3333333 C15.8219178,18.3333333 15.8219178,18.3333333 15.8219178,18.3333333 C16.4916286,18.3333333 17.1613394,18.0821918 17.5799087,17.5799087 C17.9984779,17.0776256 18.3333333,16.4916286 18.3333333,15.8219178 L18.3333333,13.3105023 C18.3333333,12.0547945 17.412481,10.9665145 16.1567732,10.7990868 Z M16.6590563,13.3105023 L16.6590563,15.8219178 C16.6590563,16.0730594 16.5753425,16.2404871 16.4079148,16.4079148 C16.2404871,16.5753425 16.0730594,16.6590563 15.738204,16.6590563 C13.3105023,16.4079148 10.9665145,15.5707763 8.87366819,14.2313546 C6.94824962,13.0593607 5.35768645,11.3850837 4.10197869,9.45966514 C2.76255708,7.36681887 1.92541857,5.02283105 1.67427702,2.59512938 C1.67427702,2.34398782 1.75799087,2.17656012 1.84170472,2.00913242 C2.00913242,1.84170472 2.26027397,1.67427702 2.51141553,1.67427702 L5.02283105,1.67427702 C5.02283105,1.67427702 5.02283105,1.67427702 5.02283105,1.67427702 C5.4414003,1.67427702 5.77625571,2.00913242 5.85996956,2.42770167 C5.94368341,3.26484018 6.19482496,4.18569254 6.52968037,4.9391172 C6.61339422,5.2739726 6.52968037,5.60882801 6.36225266,5.85996956 L5.2739726,6.86453577 C5.02283105,7.11567732 4.9391172,7.53424658 5.1065449,7.86910198 C6.36225266,10.129376 8.20395738,11.9710807 10.4642314,13.2267884 C10.7990868,13.3942161 11.217656,13.3942161 11.4687976,13.0593607 L12.5570776,11.9710807 C12.8082192,11.7199391 13.1430746,11.6362253 13.47793,11.803653 C14.3150685,12.1385084 15.152207,12.3059361 15.9893455,12.4733638 C16.3242009,12.5570776 16.6590563,12.891933 16.6590563,13.3105023 C16.6590563,13.3105023 16.6590563,13.3105023 16.6590563,13.3105023 Z" id="path-1"></path>
    </defs>
    <g id="REX-desktop" stroke="none" stroke-width="1" fill="none" fill-rule="evenodd">
        <g id="10.1-View-POD" transform="translate(-1182.000000, -603.000000)">
            <g id="Group-2-Copy" transform="translate(975.000000, 210.000000)">
                <g id="call" transform="translate(183.000000, 383.000000)">
                    <g id="icon-/-phone" transform="translate(24.833333, 10.833333)">
                        <mask id="mask-2" fill="white">
                            <use xlink:href="#path-1"></use>
                        </mask>
                        <use id="Mask" fill="#000000" fill-rule="nonzero" xlink:href="#path-1"></use>
                        <g id="Icon-Color" mask="url(#mask-2)" fill="#FFFFFF">
                            <g transform="translate(-0.833333, -0.833333)" id="Shape">
                                <rect x="0" y="0" width="20" height="20"></rect>
                            </g>
                        </g>
                    </g>
                </g>
            </g>
        </g>
    </g>
</svg>