<?xml version="1.0" encoding="UTF-8"?>
<svg width="12px" height="12px" viewBox="0 0 12 12" version="1.1" xmlns="http://www.w3.org/2000/svg" xmlns:xlink="http://www.w3.org/1999/xlink">
    <title>icon</title>
    <defs>
        <path d="M12,6 C12,6.45 11.7,6.75 11.25,6.75 L6.75,6.75 L6.75,11.25 C6.75,11.7 6.45,12 6,12 C5.55,12 5.25,11.7 5.25,11.25 L5.25,6.75 L0.75,6.75 C0.3,6.75 0,6.45 0,6 C0,5.55 0.3,5.25 0.75,5.25 L5.25,5.25 L5.25,0.75 C5.25,0.3 5.55,0 6,0 C6.45,0 6.75,0.3 6.75,0.75 L6.75,5.25 L11.25,5.25 C11.7,5.25 12,5.55 12,6 Z" id="path-1"></path>
    </defs>
    <g id="REX-desktop" stroke="none" stroke-width="1" fill="none" fill-rule="evenodd">
        <g id="05.1-Dashboard---empty" transform="translate(-638.000000, -665.000000)">
            <g id="empty" transform="translate(120.000000, 336.000000)">
                <g id="button/with-icon-outline" transform="translate(503.000000, 316.500000)">
                    <g id="icon" transform="translate(15.000000, 12.500000)">
                        <mask id="mask-2" fill="white">
                            <use xlink:href="#path-1"></use>
                        </mask>
                        <use id="Mask" fill="#000000" fill-rule="nonzero" xlink:href="#path-1"></use>
                        <g id="Icon-Color" mask="url(#mask-2)" fill="#03A9F4">
                            <g transform="translate(-3.000000, -3.000000)" id="Shape">
                                <rect x="0" y="0" width="18" height="18"></rect>
                            </g>
                        </g>
                    </g>
                </g>
            </g>
        </g>
    </g>
</svg>
