<?xml version="1.0" encoding="UTF-8"?>
<svg width="14px" height="16px" viewBox="0 0 14 16" version="1.1" xmlns="http://www.w3.org/2000/svg" xmlns:xlink="http://www.w3.org/1999/xlink">
    <title>icon / share-2</title>
    <defs>
        <path d="M10.6666667,9.33333333 C9.93333333,9.33333333 9.26666667,9.66666667 8.8,10.1333333 L5.26666667,8.06666667 C5.26666667,7.8 5.33333333,7.6 5.33333333,7.33333333 C5.33333333,7.06666667 5.26666667,6.86666667 5.2,6.6 L8.73333333,4.53333333 C9.26666667,5 9.93333333,5.33333333 10.6666667,5.33333333 C12.1333333,5.33333333 13.3333333,4.13333333 13.3333333,2.66666667 C13.3333333,1.2 12.1333333,-1.77635684e-15 10.6666667,-1.77635684e-15 C9.2,-1.77635684e-15 8,1.2 8,2.66666667 C8,2.93333333 8.06666667,3.13333333 8.13333333,3.4 L4.53333333,5.46666667 C4.06666667,5 3.4,4.66666667 2.66666667,4.66666667 C1.2,4.66666667 -3.55271368e-15,5.86666667 -3.55271368e-15,7.33333333 C-3.55271368e-15,8.8 1.2,10 2.66666667,10 C3.4,10 4.06666667,9.66666667 4.53333333,9.2 L8.06666667,11.2666667 C8.06666667,11.5333333 8,11.7333333 8,12 C8,13.4666667 9.2,14.6666667 10.6666667,14.6666667 C12.1333333,14.6666667 13.3333333,13.4666667 13.3333333,12 C13.3333333,10.5333333 12.1333333,9.33333333 10.6666667,9.33333333 Z M10.6666667,1.33333333 C11.4,1.33333333 12,1.93333333 12,2.66666667 C12,3.4 11.4,4 10.6666667,4 C9.93333333,4 9.33333333,3.4 9.33333333,2.66666667 C9.33333333,1.93333333 9.93333333,1.33333333 10.6666667,1.33333333 Z M2.66666667,8.66666667 C1.93333333,8.66666667 1.33333333,8.06666667 1.33333333,7.33333333 C1.33333333,6.6 1.93333333,6 2.66666667,6 C3.4,6 4,6.6 4,7.33333333 C4,8.06666667 3.4,8.66666667 2.66666667,8.66666667 Z M10.6666667,13.3333333 C9.93333333,13.3333333 9.33333333,12.7333333 9.33333333,12 C9.33333333,11.7333333 9.4,11.5333333 9.53333333,11.3333333 C9.53333333,11.3333333 9.53333333,11.3333333 9.53333333,11.3333333 C9.53333333,11.3333333 9.53333333,11.3333333 9.53333333,11.3333333 C9.73333333,10.9333333 10.2,10.6666667 10.6666667,10.6666667 C11.4,10.6666667 12,11.2666667 12,12 C12,12.7333333 11.4,13.3333333 10.6666667,13.3333333 Z" id="path-1"></path>
    </defs>
    <g id="REX-desktop" stroke="none" stroke-width="1" fill="none" fill-rule="evenodd">
        <g id="10.1-View-POD" transform="translate(-716.000000, -163.000000)">
            <g id="Padding-Group-3-Copy-2" transform="translate(689.000000, 153.000000)">
                <g id="icon-/-share-2" transform="translate(27.333333, 10.666667)">
                    <mask id="mask-2" fill="white">
                        <use xlink:href="#path-1"></use>
                    </mask>
                    <use id="Mask" fill="#000000" fill-rule="nonzero" xlink:href="#path-1"></use>
                    <g id="Icon-Color" mask="url(#mask-2)" fill="#03A9F4">
                        <g transform="translate(-1.333333, -0.666667)" id="Shape">
                            <rect x="0" y="0" width="16" height="16"></rect>
                        </g>
                    </g>
                </g>
            </g>
        </g>
    </g>
</svg>